# File created by Blade
# Date/Time:  Thu Jan 15 17:55:17 2015
#---------------------------------------------------------
:version 1.10
:name HOM
:units
  mass 1.0
  length 1.000000
  angle deg
:documentation
     Acclaim Skeleton File
:root
   axis xyz
   order TX TY TZ RX RY RZ
   position 0.000000 0.000000 0.000000
   orientation 0 0 0
:bonedata
   begin
      id 1
      name Spine_dum
      direction 0.000000 1.000000 0.000000
      length 5.015652
      axis 0.0 0.0 0.0 xyz
   end
   begin
      id 2
      name LeftUpLeg_dum
      direction 1.000000 0.000000 0.000000
      length 4.275145
      axis 0.0 0.0 0.0 xyz
   end
   begin
      id 3
      name RightUpLeg_dum
      direction -1.000000 0.000000 0.000000
      length 4.275145
      axis 0.0 0.0 0.0 xyz
   end
   begin
      id 4
      name Spine
      direction 0.000000 1.000000 0.000000
      length 0.000000
      axis 0.0 0.0 0.0 xyz
      dof rx ry rz
   end
   begin
      id 5
      name Spine_dum1
      direction 0.000000 1.000000 0.000000
      length 15.980521
      axis 0.0 0.0 0.0 xyz
   end
   begin
      id 6
      name Spine_dum2
      direction 0.000000 1.000000 0.000000
      length 12.162712
      axis 0.0 0.0 0.0 xyz
   end
   begin
      id 7
      name Spine_dum3
      direction 0.000000 1.000000 0.000000
      length 12.162712
      axis 0.0 0.0 0.0 xyz
   end
   begin
      id 8
      name Head
      direction 0.000000 1.000000 0.000000
      length 4.527550
      axis 0.0 0.0 0.0 xyz
      dof rx ry rz
   end
   begin
      id 9
      name LeftShoulder
      direction 1.000000 0.000000 0.000000
      length 7.205867
      axis 0.0 0.0 -90.0 xyz
      dof rx ry rz
   end
   begin
      id 10
      name LeftArm
      direction 1.000000 0.000000 0.000000
      length 10.786708
      axis 0.0 0.0 -90.0 xyz
      dof rx ry rz
   end
   begin
      id 11
      name LeftForeArm
      direction 1.000000 0.000000 0.000000
      length 7.946034
      axis 0.0 0.0 -90.0 xyz
      dof rz ry rx
   end
   begin
      id 12
      name LeftHand
      direction 0.000000 0.000000 0.000000
      length 0.000000
      axis 0.0 0.0 -90.0 xyz
      dof rx ry rz
   end
   begin
      id 13
      name LeftHand_dum1
      direction 0.000000 0.000000 0.000000
      length 0.000000
      axis 0.0 0.0 -90.0 xyz
   end
   begin
      id 14
      name LeftHand_dum2
      direction 1.000000 0.000000 0.000000
      length 3.937000
      axis 0.0 0.0 -90.0 xyz
   end
   begin
      id 15
      name LeftHandThumb1
      direction 0.000000 0.000000 1.000000
      length 3.937000
      axis 0.0 0.0 -90.0 xyz
      dof rx ry rz
   end
   begin
      id 16
      name RightShoulder
      direction -1.000000 0.000000 0.000000
      length 7.205867
      axis 0.0 0.0 90.0 xyz
      dof rx ry rz
   end
   begin
      id 17
      name RightArm
      direction -1.000000 0.000000 0.000000
      length 10.786708
      axis 0.0 0.0 90.0 xyz
      dof rx ry rz
   end
   begin
      id 18
      name RightForeArm
      direction -1.000000 0.000000 0.000000
      length 7.946034
      axis 0.0 0.0 90.0 xyz
      dof rz ry rx
   end
   begin
      id 19
      name RightHand
      direction 0.000000 0.000000 0.000000
      length 0.000000
      axis 0.0 0.0 90.0 xyz
      dof rx ry rz
   end
   begin
      id 20
      name RightHand_dum1
      direction 0.000000 0.000000 0.000000
      length 0.000000
      axis 0.0 0.0 90.0 xyz
   end
   begin
      id 21
      name RightHand_dum2
      direction -1.000000 0.000000 0.000000
      length 3.937000
      axis 0.0 0.0 90.0 xyz
   end
   begin
      id 22
      name RightHandThumb1
      direction 0.000000 0.000000 1.000000
      length 3.937000
      axis 0.0 0.0 90.0 xyz
      dof rx ry rz
   end
   begin
      id 23
      name LeftUpLeg
      direction 0.000000 -1.000000 0.000000
      length 17.046659
      axis 0.0 0.0 0.0 xyz
      dof rx ry rz
   end
   begin
      id 24
      name LeftLeg
      direction 0.000000 -1.000000 0.000000
      length 17.458438
      axis 0.0 0.0 0.0 xyz
      dof rx ry rz
   end
   begin
      id 25
      name LeftFoot
      direction 0.000000 -0.258819 0.965926
      length 5.099406
      axis 15.0 0.0 0.0 xyz
      dof rx ry rz
   end
   begin
      id 26
      name LeftToeBase
      direction 0.000000 0.000000 1.000000
      length 2.952750
      axis 0.0 0.0 0.0 xyz
      dof rx ry rz
   end
   begin
      id 27
      name RightUpLeg
      direction 0.000000 -1.000000 0.000000
      length 17.046659
      axis 0.0 0.0 0.0 xyz
      dof rx ry rz
   end
   begin
      id 28
      name RightLeg
      direction 0.000000 -1.000000 0.000000
      length 17.458438
      axis 0.0 0.0 0.0 xyz
      dof rx ry rz
   end
   begin
      id 29
      name RightFoot
      direction 0.000000 -0.258819 0.965926
      length 5.099406
      axis 15.0 0.0 0.0 xyz
      dof rx ry rz
   end
   begin
      id 30
      name RightToeBase
      direction 0.000000 0.000000 1.000000
      length 2.952750
      axis 0.0 0.0 0.0 xyz
      dof rx ry rz
   end
:hierarchy
   begin
      root Spine_dum LeftUpLeg_dum RightUpLeg_dum
      Spine_dum Spine
      LeftUpLeg_dum LeftUpLeg
      RightUpLeg_dum RightUpLeg
      Spine Spine_dum1 Spine_dum2 Spine_dum3
      Spine_dum1 Head
      Spine_dum2 LeftShoulder
      Spine_dum3 RightShoulder
      LeftShoulder LeftArm
      LeftArm LeftForeArm
      LeftForeArm LeftHand
      LeftHand LeftHand_dum1 LeftHand_dum2
      LeftHand_dum1 LeftHandThumb1
      RightShoulder RightArm
      RightArm RightForeArm
      RightForeArm RightHand
      RightHand RightHand_dum1 RightHand_dum2
      RightHand_dum1 RightHandThumb1
      LeftUpLeg LeftLeg
      LeftLeg LeftFoot
      LeftFoot LeftToeBase
      RightUpLeg RightLeg
      RightLeg RightFoot
      RightFoot RightToeBase
   end

# File created by Blade
# Date/Time:  Thu Jan 15 17:55:09 2015
# Frame Rate: 120.000 fps
#------------------------------------------------------
:FULLY-SPECIFIED
:DEGREES
53
root 5.362174 35.729274 -10.784932 6.087457 -1.560173 1.634099
Spine -10.579484 -15.112708 -1.739850
Head 1.489119 11.390155 16.381332
LeftShoulder -32.558910 2.877229 14.845745
LeftArm 14.914125 -45.852198 -19.333038
LeftForeArm -0.000000 23.373857 -4.189893
LeftHand 0.740823 -0.000000 -3.197998
LeftHandThumb1 -26.253704 33.147579 0.000000
RightShoulder -2.678271 18.313418 -13.642706
RightArm 5.973435 35.062169 21.895558
RightForeArm -0.000000 -48.347121 11.880611
RightHand -3.533038 -0.000000 5.205148
RightHandThumb1 -24.326973 -32.862282 -0.000000
LeftUpLeg -0.480731 11.708642 -1.263732
LeftLeg -0.598234 -0.000000 0.000000
LeftFoot -23.277680 18.965511 -15.586837
LeftToeBase 25.210813 -0.000000 -0.000000
RightUpLeg 0.917881 -14.293156 -1.640214
RightLeg -4.017014 -0.000000 0.000000
RightFoot -21.550709 -23.528191 11.853487
RightToeBase 26.979542 -0.000000 -0.000000
54
root 5.362605 35.728488 -10.778407 6.086454 -1.554410 1.635615
Spine -10.574048 -15.121001 -1.744940
Head 1.479531 11.391422 16.383865
LeftShoulder -32.563910 2.869273 14.868554
LeftArm 14.895942 -45.812755 -19.323613
LeftForeArm 0.000000 23.350415 -4.194403
LeftHand 0.744313 -0.000000 -3.164372
LeftHandThumb1 -26.253704 33.147579 0.000000
RightShoulder -2.661329 18.339218 -13.623105
RightArm 5.961920 35.105688 21.878540
RightForeArm 0.000000 -48.409368 11.852207
RightHand -3.600905 0.000000 5.181510
RightHandThumb1 -24.326973 -32.862282 -0.000000
LeftUpLeg -0.468639 11.679098 -1.261292
LeftLeg -0.599663 -0.000000 0.000000
LeftFoot -23.293790 18.987238 -15.580960
LeftToeBase 25.209964 -0.000000 -0.000000
RightUpLeg 0.934515 -14.299396 -1.643848
RightLeg -4.025784 -0.000000 0.000000
RightFoot -21.554067 -23.532077 11.856621
RightToeBase 26.974101 -0.000000 -0.000000
55
root 5.362623 35.727818 -10.771957 6.082388 -1.553781 1.636397
Spine -10.568210 -15.111772 -1.750821
Head 1.474025 11.365618 16.380710
LeftShoulder -32.546513 2.857065 14.887067
LeftArm 14.862813 -45.804257 -19.305249
LeftForeArm -0.000000 23.346680 -4.183317
LeftHand 0.753997 0.000000 -3.185554
LeftHandThumb1 -26.253704 33.147579 0.000000
RightShoulder -2.663042 18.321693 -13.625499
RightArm 5.945111 35.123559 21.873617
RightForeArm -0.000000 -48.453752 11.840026
RightHand -3.540231 -0.000000 5.147325
RightHandThumb1 -24.326973 -32.862282 -0.000000
LeftUpLeg -0.443747 11.701738 -1.260489
LeftLeg -0.620008 -0.000000 0.000000
LeftFoot -23.283924 18.978115 -15.567649
LeftToeBase 25.225740 -0.000000 -0.000000
RightUpLeg 0.955932 -14.286607 -1.650163
RightLeg -4.034082 -0.000000 0.000000
RightFoot -21.560584 -23.536299 11.856802
RightToeBase 26.951938 -0.000000 -0.000000
56
root 5.362989 35.727260 -10.765827 6.087240 -1.547815 1.637517
Spine -10.573282 -15.116191 -1.750549
Head 1.472081 11.364432 16.373039
LeftShoulder -32.543216 2.862695 14.885739
LeftArm 14.856579 -45.804199 -19.287014
LeftForeArm -0.000000 23.354692 -4.192451
LeftHand 0.757475 -0.000000 -3.188394
LeftHandThumb1 -26.253704 33.147579 0.000000
RightShoulder -2.664350 18.290436 -13.619341
RightArm 5.943844 35.059834 21.853635
RightForeArm -0.000000 -48.391850 11.839131
RightHand -3.564548 -0.000000 5.166067
RightHandThumb1 -24.326973 -32.862282 -0.000000
LeftUpLeg -0.442610 11.680301 -1.260007
LeftLeg -0.612574 -0.000000 0.000000
LeftFoot -23.290669 18.982944 -15.577046
LeftToeBase 25.196234 -0.000000 -0.000000
RightUpLeg 0.969535 -14.286367 -1.652640
RightLeg -4.050772 -0.000000 0.000000
RightFoot -21.567014 -23.550803 11.861692
RightToeBase 26.989784 -0.000000 -0.000000
57
root 5.363160 35.726634 -10.759073 6.090733 -1.543336 1.636544
Spine -10.578503 -15.119808 -1.748348
Head 1.471865 11.350666 16.367367
LeftShoulder -32.540708 2.867534 14.897316
LeftArm 14.847564 -45.813128 -19.292973
LeftForeArm -0.000000 23.354929 -4.189281
LeftHand 0.748270 -0.000000 -3.167188
LeftHandThumb1 -26.253704 33.147579 0.000000
RightShoulder -2.662256 18.289301 -13.617328
RightArm 5.933287 35.031533 21.840586
RightForeArm -0.000000 -48.360894 11.830091
RightHand -3.542989 -0.000000 5.173255
RightHandThumb1 -24.326973 -32.862282 -0.000000
LeftUpLeg -0.430236 11.699415 -1.257955
LeftLeg -0.625242 -0.000000 0.000000
LeftFoot -23.296284 18.973087 -15.562830
LeftToeBase 25.243242 -0.000000 -0.000000
RightUpLeg 0.978152 -14.297432 -1.652950
RightLeg -4.050462 -0.000000 0.000000
RightFoot -21.570515 -23.541048 11.855336
RightToeBase 26.977287 -0.000000 -0.000000
58
root 5.362811 35.726052 -10.753100 6.090306 -1.532789 1.640210
Spine -10.577120 -15.125509 -1.755949
Head 1.478171 11.349738 16.379919
LeftShoulder -32.526616 2.868955 14.912904
LeftArm 14.828086 -45.837631 -19.287148
LeftForeArm -0.000000 23.381489 -4.190630
LeftHand 0.742835 -0.000000 -3.187342
LeftHandThumb1 -26.253704 33.147579 0.000000
RightShoulder -2.667399 18.263665 -13.615249
RightArm 5.937289 35.032789 21.848401
RightForeArm -0.000000 -48.354592 11.835290
RightHand -3.567504 -0.000000 5.167907
RightHandThumb1 -24.326973 -32.862282 -0.000000
LeftUpLeg -0.419141 11.736052 -1.259953
LeftLeg -0.628997 -0.000000 0.000000
LeftFoot -23.288683 18.927881 -15.565808
LeftToeBase 25.204382 -0.000000 -0.000000
RightUpLeg 0.995304 -14.285693 -1.656143
RightLeg -4.058085 -0.000000 0.000000
RightFoot -21.558805 -23.547452 11.927289
RightToeBase 26.785460 -0.000000 -0.000000
59
root 5.363929 35.724860 -10.746853 6.087540 -1.526753 1.640426
Spine -10.577338 -15.131345 -1.750557
Head 1.501649 11.360815 16.371368
LeftShoulder -32.520357 2.870948 14.918583
LeftArm 14.821030 -45.857214 -19.287917
LeftForeArm -0.000000 23.373093 -4.199774
LeftHand 0.761657 -0.000000 -3.161979
LeftHandThumb1 -26.253704 33.147579 0.000000
RightShoulder -2.654966 18.265858 -13.627197
RightArm 5.936548 35.043697 21.863748
RightForeArm 0.000000 -48.296429 11.816270
RightHand -3.633611 -0.000000 5.115953
RightHandThumb1 -24.326973 -32.862282 -0.000000
LeftUpLeg -0.392784 11.666541 -1.257981
LeftLeg -0.655484 -0.000000 0.000000
LeftFoot -23.295397 18.988487 -15.572496
LeftToeBase 25.211489 -0.000000 -0.000000
RightUpLeg 1.007662 -14.299732 -1.663441
RightLeg -4.057055 -0.000000 0.000000
RightFoot -21.608756 -23.612263 11.759534
RightToeBase 27.209273 -0.000000 -0.000000
60
root 5.363051 35.724392 -10.739963 6.083017 -1.515574 1.640375
Spine -10.578431 -15.135725 -1.754794
Head 1.547814 11.330725 16.353985
LeftShoulder -32.504608 2.874355 14.934255
LeftArm 14.808474 -45.872611 -19.286985
LeftForeArm 0.000000 23.384325 -4.201606
LeftHand 0.752229 -0.000000 -3.171722
LeftHandThumb1 -26.253704 33.147579 0.000000
RightShoulder -2.646323 18.260474 -13.620731
RightArm 5.914444 35.032429 21.850611
RightForeArm 0.000000 -48.272629 11.829228
RightHand -3.628949 -0.000000 5.096154
RightHandThumb1 -24.326973 -32.862282 -0.000000
LeftUpLeg -0.368088 11.697561 -1.253414
LeftLeg -0.674405 -0.000000 0.000000
LeftFoot -23.277175 18.947684 -15.563248
LeftToeBase 25.174924 -0.000000 -0.000000
RightUpLeg 1.033604 -14.307386 -1.663657
RightLeg -4.075869 -0.000000 0.000000
RightFoot -21.589926 -23.579421 11.856055
RightToeBase 26.980748 -0.000000 -0.000000
61
root 5.363521 35.724092 -10.733876 6.082344 -1.505354 1.645245
Spine -10.582599 -15.143365 -1.757791
Head 1.580409 11.326547 16.350868
LeftShoulder -32.488037 2.872874 14.947460
LeftArm 14.783808 -45.894993 -19.284683
LeftForeArm -0.000000 23.371446 -4.187902
LeftHand 0.743847 -0.000000 -3.185240
LeftHandThumb1 -26.253704 33.147579 0.000000
RightShoulder -2.640481 18.243537 -13.615569
RightArm 5.915233 35.018030 21.841778
RightForeArm 0.000000 -48.245133 11.836774
RightHand -3.658344 0.000000 5.120760
RightHandThumb1 -24.326973 -32.862282 -0.000000
LeftUpLeg -0.363608 11.712116 -1.256409
LeftLeg -0.667819 -0.000000 0.000000
LeftFoot -23.289540 18.932443 -15.550015
LeftToeBase 25.240211 -0.000000 -0.000000
RightUpLeg 1.050264 -14.303323 -1.672445
RightLeg -4.082459 -0.000000 0.000000
RightFoot -21.609733 -23.635008 11.768630
RightToeBase 27.153454 -0.000000 -0.000000
62
root 5.363566 35.723744 -10.727211 6.080635 -1.495779 1.646061
Spine -10.588971 -15.137753 -1.758258
Head 1.619114 11.325591 16.351667
LeftShoulder -32.460265 2.874521 14.958826
LeftArm 14.766522 -45.912533 -19.286362
LeftForeArm -0.000000 23.376827 -4.183869
LeftHand 0.734377 -0.000000 -3.172366
LeftHandThumb1 -26.253704 33.147579 0.000000
RightShoulder -2.660555 18.225579 -13.627045
RightArm 5.924338 34.960354 21.843398
RightForeArm -0.000000 -48.183384 11.834288
RightHand -3.633099 -0.000000 5.142147
RightHandThumb1 -24.326973 -32.862282 -0.000000
LeftUpLeg -0.347974 11.744493 -1.254582
LeftLeg -0.675303 -0.000000 0.000000
LeftFoot -23.278484 18.896526 -15.533309
LeftToeBase 25.171211 -0.000000 -0.000000
RightUpLeg 1.067626 -14.319684 -1.675220
RightLeg -4.088166 -0.000000 0.000000
RightFoot -21.589268 -23.590989 11.843294
RightToeBase 26.940147 -0.000000 -0.000000
63
root 5.363670 35.723150 -10.720290 6.076780 -1.480144 1.651150
Spine -10.595088 -15.151417 -1.760977
Head 1.666367 11.332618 16.356315
LeftShoulder -32.451666 2.864509 14.979083
LeftArm 14.760057 -45.924929 -19.293868
LeftForeArm -0.000000 23.416000 -4.188903
LeftHand 0.736623 0.000000 -3.165480
LeftHandThumb1 -26.253704 33.147579 0.000000
RightShoulder -2.648421 18.210156 -13.629862
RightArm 5.910641 34.962820 21.842139
RightForeArm -0.000000 -48.166613 11.851305
RightHand -3.608227 0.000000 5.123858
RightHandThumb1 -24.326973 -32.862282 -0.000000
LeftUpLeg -0.330118 11.741499 -1.256062
LeftLeg -0.682572 -0.000000 0.000000
LeftFoot -23.274433 18.870839 -15.563269
LeftToeBase 25.158610 -0.000000 -0.000000
RightUpLeg 1.095246 -14.337483 -1.683979
RightLeg -4.105949 -0.000000 0.000000
RightFoot -21.587375 -23.587465 11.847282
RightToeBase 26.924384 -0.000000 -0.000000
